<?xml version="1.0" encoding="UTF-8" standalone="no"?>
<!DOCTYPE svg PUBLIC "-//W3C//DTD SVG 1.1//EN" "http://www.w3.org/Graphics/SVG/1.1/DTD/svg11.dtd">
<!-- Generated by graphviz version 2.28.0 (20120228.1928)
	   -->
<!-- Title: G Pages: 1 -->
<svg xmlns="http://www.w3.org/2000/svg" xmlns:xlink="http://www.w3.org/1999/xlink" width="253pt" height="206pt" viewBox="0.00 0.00 253.44 205.59">
  <g id="graph1" class="graph" transform="scale(1 1) rotate(0) translate(4 201.594)">
    <title>G</title>
    <polygon fill="white" stroke="white" points="-4,5 -4,-201.594 250.442,-201.594 250.442,5 -4,5"/>
    <!-- Armory 1 -->
    <g id="node1" class="node">
      <title>Armory 1</title>
      <ellipse fill="none" stroke="black" cx="38.4983" cy="-81.3313" rx="38.4949" ry="18"/>
      <text text-anchor="middle" x="38.4983" y="-77.6313" font-family="Times,serif" font-size="14.00">Armory</text>
    </g>
    <!-- Courtyard 1 -->
    <g id="node3" class="node">
      <title>Courtyard 1</title>
      <ellipse fill="none" stroke="black" cx="131.641" cy="-92.9894" rx="46.2191" ry="18"/>
      <text text-anchor="middle" x="131.641" y="-89.2894" font-family="Times,serif" font-size="14.00">Courtyard</text>
    </g>
    <!-- Armory 1&#45;&gt;Courtyard 1 -->
    <g id="edge2" class="edge">
      <title>Armory 1-&gt;Courtyard 1</title>
      <path fill="none" stroke="black" d="M70.2713,-91.8301C71.9577,-92.1112 73.6731,-92.3827 75.4072,-92.6436"/>
      <polygon fill="black" stroke="black" points="75.0918,-96.1328 85.4721,-94.0113 76.0344,-89.1966 75.0918,-96.1328"/>
    </g>
    <!-- Courtyard 1&#45;&gt;Armory 1 -->
    <g id="edge8" class="edge">
      <title>Courtyard 1-&gt;Armory 1</title>
      <path fill="none" stroke="black" d="M95.3834,-81.7758C92.6341,-81.3568 89.8343,-80.9646 87.0251,-80.6042"/>
      <polygon fill="black" stroke="black" points="87.2163,-77.1034 76.8841,-79.4476 86.4231,-84.0583 87.2163,-77.1034"/>
    </g>
    <!-- Library 1 -->
    <g id="node7" class="node">
      <title>Library 1</title>
      <ellipse fill="none" stroke="black" cx="167.736" cy="-179.594" rx="37.0701" ry="18"/>
      <text text-anchor="middle" x="167.736" y="-175.894" font-family="Times,serif" font-size="14.00">Library</text>
    </g>
    <!-- Courtyard 1&#45;&gt;Library 1 -->
    <g id="edge6" class="edge">
      <title>Courtyard 1-&gt;Library 1</title>
      <path fill="none" stroke="black" d="M133.435,-111.361C137.055,-123.55 143.431,-139.707 149.82,-153.249"/>
      <polygon fill="black" stroke="black" points="146.856,-155.151 154.435,-162.555 153.127,-152.041 146.856,-155.151"/>
    </g>
    <!-- Birth Springs 1 -->
    <g id="node4" class="node">
      <title>Birth Springs 1</title>
      <ellipse fill="none" stroke="blue" cx="188.019" cy="-18" rx="57.2688" ry="18"/>
      <text text-anchor="middle" x="188.019" y="-14.3" font-family="Times,serif" font-size="14.00" fill="blue">Birth Springs</text>
    </g>
    <!-- Birth Springs 1&#45;&gt;Courtyard 1 -->
    <g id="edge4" class="edge">
      <title>Birth Springs 1-&gt;Courtyard 1</title>
      <path fill="none" stroke="black" d="M174.658,-35.7714C167.516,-45.2722 158.597,-57.1348 150.735,-67.5915"/>
      <polygon fill="black" stroke="black" points="147.923,-65.5079 144.711,-75.6042 153.518,-69.7145 147.923,-65.5079"/>
    </g>
    <!-- Library 1&#45;&gt;Courtyard 1 -->
    <g id="edge10" class="edge">
      <title>Library 1-&gt;Courtyard 1</title>
      <path fill="none" stroke="black" d="M165.941,-161.222C162.345,-149.116 156.031,-133.095 149.686,-119.609"/>
      <polygon fill="black" stroke="black" points="152.668,-117.742 145.099,-110.329 146.392,-120.844 152.668,-117.742"/>
    </g>
  </g>
</svg>
